# xmcd
#
# Track frame offsets:
#	150
#	18212
#	33890
#	51317
#	64561
#	83402
#	100335
#	116428
#	131539
#	144956
#	161875
#
# Disc length: 2400 seconds
#
# Revision: 1
# Processed by: cddbd v1.5.2PL0 Copyright (c) Steve Scherf et al.
# Submitted via: audiograbber 1.83.01
#
DISCID=83095e0b
DTITLE=Band Of Horses - Mirage Rock
DYEAR=2012
DGENRE=Southern Rock
TTITLE0=Knock Knock
TTITLE1=How To Live
TTITLE2=Slow Cruel Hands Of Time
TTITLE3=A Little Biblical
TTITLE4=Shut-In Tourist
TTITLE5=Dumpster World
TTITLE6=Electric Music
TTITLE7=Everything's Gonna Be Undone
TTITLE8=Feud
TTITLE9=Long Vows
TTITLE10=Heartbreak On The 101
EXTD=
EXTT0=
EXTT1=
EXTT2=
EXTT3=
EXTT4=
EXTT5=
EXTT6=
EXTT7=
EXTT8=
EXTT9=
EXTT10=
PLAYORDER=
